Coordinates
version=1
nRows=13
nColumns=36
inDegrees=yes

Units are S.I. units (second, meters, Newtons, ...)
If the header above contains a line with 'inDegrees', this indicates whether rotational values are in degrees (yes) or radians (no).

endheader
time	pelvis_tilt	pelvis_list	pelvis_rotation	pelvis_tx	pelvis_ty	pelvis_tz	hip_flexion_r	hip_adduction_r	hip_rotation_r	knee_angle_r	knee_angle_r_beta	ankle_angle_r	subtalar_angle_r	mtp_angle_r	hip_flexion_l	hip_adduction_l	hip_rotation_l	knee_angle_l	knee_angle_l_beta	ankle_angle_l	subtalar_angle_l	mtp_angle_l	lumbar_extension	lumbar_bending	lumbar_rotation	arm_flex_r	arm_add_r	arm_rot_r	elbow_flex_r	pro_sup_r	arm_flex_l	arm_add_l	arm_rot_l	elbow_flex_l	pro_sup_l
      4.23333330	      2.17426207	      1.50797310	      0.72622906	      0.32204660	      0.79976390	     -0.04581026	     46.66104265	    -12.56567871	      0.72612262	     84.62349976	      1.47695870	     32.88179756	    -13.59213122	     -7.49999987	     46.25126931	     -6.86109526	      7.18108583	     81.89952327	      1.42941634	     29.79169084	    -11.79006019	     -7.49999987	    -52.86059824	      1.29325181	     -1.30815299	     30.07269198	     -9.53929357	      7.13009738	    127.45368734	     94.22385284	     35.91077549	     -5.36596351	     12.11905952	    127.37953426	     77.37533016
      4.23750000	      2.23155416	      1.56144196	      0.55510815	      0.32602721	      0.79998482	     -0.05041368	     46.24264693	    -12.50079462	      0.94312712	     84.15877887	      1.46884779	     32.71747461	    -13.80604297	     -7.49999987	     45.81726705	     -6.74214616	      6.96077165	     81.62947220	      1.42470306	     30.05820831	    -11.72561921	     -7.49999987	    -52.61010873	      1.36697877	     -1.30098100	     29.72718781	     -9.91333120	      7.17440697	    127.45156736	     94.50769163	     35.31261262	     -5.35331749	     12.09239707	    127.24687992	     77.45512590
      4.24166670	      2.15799489	      1.61042001	      0.46088856	      0.32537555	      0.80028052	     -0.05002887	     46.06068545	    -12.36727624	      1.19285066	     83.70151671	      1.46086706	     32.19720867	    -14.36408507	     -7.49999987	     45.71890191	     -6.66344038	      6.69720660	     81.46730382	      1.42187268	     30.28090978	    -11.76559905	     -7.49999987	    -52.44555628	      1.29028481	     -1.05259736	     29.59576051	    -10.54681699	      6.85477348	    128.15282292	    101.59490841	     35.41934001	     -5.21843417	     12.16955632	    127.20897042	     80.16688322
      4.24583330	      2.22610430	      1.63020114	      0.38220094	      0.32984180	      0.79814710	     -0.04550159	     45.86592075	    -12.25722009	      1.37646359	     83.68531269	      1.46058424	     32.30378663	    -14.46967445	     -7.49999987	     45.57233780	     -6.76240535	      6.65437922	     81.58468098	      1.42392130	     30.47696941	    -11.73441089	     -7.49999987	    -52.06818968	      1.18807373	     -1.02542723	     29.33259551	    -10.77383959	      7.00005343	    128.51655041	    101.61259775	     34.86840438	     -5.59684688	     12.13640918	    127.31452359	     80.17434956
      4.25000000	      1.89167710	      1.62573743	      0.21459864	      0.32926861	      0.79794740	     -0.04536929	     46.31811386	    -11.83140167	      1.68128794	     83.91549734	      1.46460172	     32.13572944	    -15.00456120	     -7.49999987	     45.96409790	     -6.99332094	      6.46059970	     81.80778597	      1.42781522	     30.83311727	    -11.29958922	     -7.49999987	    -51.45342107	      1.10002938	     -1.07722077	     29.15788560	    -11.01686361	      7.77733421	    129.35740885	    100.79800980	     34.04507920	     -6.14149924	     11.91771325	    127.96889108	     79.80674334
      4.25416670	      1.65081874	      1.55928715	      0.04414809	      0.32965141	      0.79795014	     -0.04554005	     46.56192195	    -11.39967874	      1.88844489	     83.97911494	      1.46571206	     32.21185498	    -15.39058959	     -7.49999987	     46.12393635	     -7.22680497	      6.28363471	     81.88973785	      1.42924555	     30.90407247	    -11.28679400	     -7.49999987	    -50.81684452	      1.05944230	     -1.14412065	     29.10152565	    -11.11431178	      8.36347072	    130.00320110	    100.38528448	     33.61627511	     -6.51257068	     11.60687044	    128.25780406	     79.62657936
      4.25833330	      1.31905021	      1.59983422	     -0.06760890	      0.32936612	      0.79831108	     -0.04543512	     47.08819290	    -11.14342235	      2.07008195	     84.21634659	      1.46985253	     32.04798118	    -15.88553264	     -7.49999987	     46.47659673	     -7.34440167	      6.13912535	     81.85425765	      1.42862630	     30.78548111	    -11.21205269	     -7.49999987	    -50.13453546	      0.94305428	     -1.30955161	     28.80244877	    -11.11003426	      8.80621001	    130.66448812	     99.96919622	     33.10874035	     -6.91665909	     11.56682390	    128.51881252	     79.23778870
      4.26250000	      1.20140339	      1.62152926	     -0.02758224	      0.32980717	      0.80473518	     -0.04574290	     46.95434852	    -10.98426780	      2.10645323	     83.72409328	      1.46126109	     31.84807706	    -15.88471393	     -7.49999987	     46.34493435	     -7.34135778	      6.03556790	     81.42249294	      1.42109059	     30.45628271	    -11.10356930	     -7.49999987	    -49.64642044	      0.89715712	     -1.44515442	     28.52974221	    -11.07626716	      8.90762919	    130.69296917	     99.96732946	     32.94539811	     -6.98456301	     11.60790560	    128.43751382	     79.23994166
      4.26666670	      1.05102220	      1.70609733	     -0.14461225	      0.33392383	      0.80539551	     -0.04112967	     46.82608498	    -10.64079445	      2.23866468	     83.38767229	      1.45538944	     30.89391219	    -16.90835538	     -7.49999987	     46.03521244	     -7.49745484	      5.92584570	     80.80827314	      1.41037043	     29.89692978	    -11.23590254	     -7.49999987	    -49.00132492	      0.67045056	     -1.60333097	     28.00569720	    -10.81887198	      9.31699620	    130.45619058	    103.35071123	     32.61051573	     -7.50624064	     11.59950698	    128.50319946	     80.62296929
      4.27083330	      1.01387768	      1.75244885	     -0.13024562	      0.33815340	      0.80606221	     -0.04611760	     46.54719610	    -10.56316387	      2.37485065	     83.19073765	      1.45195228	     30.66404194	    -17.03862450	     -7.49999987	     45.68609196	     -7.42231528	      5.79239465	     80.52322239	      1.40539535	     29.79956399	    -11.12585406	     -7.49999987	    -48.50010603	      0.64890823	     -1.66944924	     27.47992409	    -10.92447146	      9.29912739	    130.46689713	    103.35603753	     32.13164172	     -7.67849668	     11.70206838	    128.59333331	     80.64768917
      4.27500000	      1.09751827	      1.82621001	     -0.11534847	      0.34148080	      0.80962641	     -0.04198564	     45.94525415	    -10.31485308	      2.54788207	     82.80636680	      1.44524374	     30.65405717	    -17.61820701	     -7.49999987	     44.99876781	     -7.46618053	      5.68819861	     79.97505880	      1.39582810	     29.72024942	    -11.09096788	     -7.49999987	    -47.94157451	      0.47877246	     -1.70334268	     26.72227516	    -10.84500260	      9.21863873	    130.07804100	    103.36337131	     31.60636956	     -7.95352960	     11.84946291	    128.47270640	     80.68244590
      4.27916670	      1.20453315	      1.85430565	     -0.24216906	      0.34125087	      0.81289559	     -0.04234583	     45.41758768	    -10.15858711	      2.59515082	     82.32845982	      1.43690269	     30.19760819	    -18.20458275	     -7.49999987	     44.32046149	     -7.52152038	      5.51520468	     79.45399103	      1.38673375	     29.46733203	    -11.12158418	     -7.49999987	    -47.44357640	      0.38299436	     -1.67473802	     26.55378886	    -10.88158001	      9.11916440	    129.34819754	    102.42983228	     31.40142506	     -8.09279890	     11.94694400	    128.06648942	     80.16877552
      4.28333330	      1.17271749	      1.83857978	     -0.39709063	      0.33698072	      0.81887804	     -0.03752187	     45.18903065	     -9.78470372	      2.60598154	     81.81441557	      1.42793093	     29.73750813	    -18.70539892	     -7.49999987	     43.77674338	     -7.77710177	      5.39686151	     78.47775148	      1.36969515	     28.80330689	    -11.67662203	     -7.49999987	    -47.11727504	      0.29291551	     -1.47846610	     26.52947997	    -10.91695527	      9.16323690	    129.46853418	    102.58364344	     31.31550000	     -8.46431861	     11.46634475	    128.04081321	     80.29607983
